# xmcd
#
# Track frame offsets:
#	150
#	13074
#	27064
#	44277
#	57583
#	73688
#	89064
#	105662
#	120812
#	138661
#
# Disc length: 2019 seconds
# Revision: 0
# Processed by: cddbd v1.5.2PL0 Copyright (c) Steve Scherf et al.
# Submitted via: dBpowerAMP V12.0
#
DISCID=8707e10a
DTITLE=Owen Temple - Mountain Home
DYEAR=2010
DGENRE=Country
TTITLE0=Mountain Home
TTITLE1=Desdemona
TTITLE2=Medicine Man
TTITLE3=Small Town
TTITLE4=Danger and Good Times
TTITLE5=Fall in Love Every Night
TTITLE6=Jacksboro Highway
TTITLE7=Old Sam
TTITLE8=Prince of Peace
TTITLE9=One Day Closer To Rain
EXTD=
EXTT0=
EXTT1=
EXTT2=
EXTT3=
EXTT4=
EXTT5=
EXTT6=
EXTT7=
EXTT8=
EXTT9=
PLAYORDER=
